<svg width="40" height="40" viewBox="0 0 40 40" fill="none" xmlns="http://www.w3.org/2000/svg">
<path d="M20 8.75C20.8653 8.75 21.7112 8.49341 22.4306 8.01268C23.1501 7.53195 23.7109 6.84867 24.042 6.04924C24.3731 5.24982 24.4598 4.37015 24.291 3.52148C24.1221 2.67282 23.7055 1.89326 23.0936 1.28141C22.4818 0.669555 21.7022 0.252877 20.8535 0.0840664C20.0049 -0.084744 19.1252 0.00189565 18.3258 0.333029C17.5263 0.664162 16.843 1.22492 16.3623 1.94438C15.8816 2.66385 15.625 3.50971 15.625 4.375C15.625 5.53532 16.0859 6.64812 16.9064 7.46859C17.7269 8.28907 18.8397 8.75 20 8.75ZM33.7501 35H6.24993C5.91841 35 5.60047 35.1317 5.36605 35.3661C5.13162 35.6005 4.99993 35.9185 4.99993 36.25V38.75C4.99993 39.0815 5.13162 39.3995 5.36605 39.6339C5.60047 39.8683 5.91841 40 6.24993 40H33.7501C34.0816 40 34.3995 39.8683 34.634 39.6339C34.8684 39.3995 35.0001 39.0815 35.0001 38.75V36.25C35.0001 35.9185 34.8684 35.6005 34.634 35.3661C34.3995 35.1317 34.0816 35 33.7501 35ZM39.4431 14.3875L37.2157 13.1438C36.6345 12.7531 35.8946 12.9516 35.4743 13.5094C35.0556 14.0699 34.4872 14.5009 33.8345 14.7528C33.1817 15.0048 32.4712 15.0674 31.7844 14.9336C29.9766 14.5984 28.75 12.8852 28.75 11.0469C28.75 10.7692 28.6397 10.503 28.4434 10.3066C28.2471 10.1103 27.9808 10 27.7032 10H24.6742C24.2055 10 23.7672 10.3125 23.6695 10.7742C23.4923 11.6161 23.0309 12.3715 22.3627 12.9136C21.6946 13.4557 20.8604 13.7515 20 13.7515C19.1396 13.7515 18.3054 13.4557 17.6373 12.9136C16.9691 12.3715 16.5077 11.6161 16.3305 10.7742C16.2328 10.3117 15.7976 10 15.3258 10H12.2968C12.0192 10 11.7529 10.1103 11.5566 10.3066C11.3603 10.503 11.25 10.7692 11.25 11.0469C11.25 13.0539 9.76558 14.8555 7.7601 14.9914C7.13695 15.0353 6.5128 14.9213 5.94549 14.6597C5.37817 14.3982 4.88607 13.9977 4.51477 13.4953C4.10227 12.9414 3.36398 12.757 2.78898 13.1406L0.556937 14.3906C0.303343 14.5596 0.120199 14.8153 0.0419342 15.1098C-0.0363304 15.4043 -0.00432451 15.7173 0.131935 15.9898L8.14369 32.5H31.8563L39.8681 15.9867C40.0043 15.7142 40.0363 15.4012 39.9581 15.1067C39.8798 14.8122 39.6967 14.5565 39.4431 14.3875Z" fill="#E1C8F4"/>
</svg>
