<svg width="16" height="15" viewBox="0 0 16 15" fill="none" xmlns="http://www.w3.org/2000/svg">
<path d="M6.87764 1.00469L7.62086 0.242157C7.93555 -0.080719 8.44443 -0.080719 8.75577 0.242157L15.264 6.91608C15.5787 7.23895 15.5787 7.76105 15.264 8.08049L8.75577 14.7578C8.44108 15.0807 7.93221 15.0807 7.62086 14.7578L6.87764 13.9953C6.55959 13.669 6.56629 13.1366 6.89103 12.8172L10.9252 8.87394H1.30348C0.858219 8.87394 0.5 8.50641 0.5 8.04958V6.95042C0.5 6.49359 0.858219 6.12606 1.30348 6.12606H10.9252L6.89103 2.18285C6.56294 1.86341 6.55624 1.33101 6.87764 1.00469Z" fill="black"/>
</svg>
